<svg xmlns="http://www.w3.org/2000/svg" role="img" viewBox="0 0 725.1 553.05" preserveAspectRatio="xMidYMid meet" data-type="ugc">
    <g>
        <defs>
            <linearGradient id="c7125316-a15f-449d-9c7e-0ebc1a536b58" gradientUnits="userSpaceOnUse" gradientTransform="matrix(-0.57 0.01 0 0.45 1095.81 533.62)" x1="574" y1="-75.5" x2="1295.14" y2="-75.5">
                <stop stop-color="#030303" stop-opacity="0.3" offset="0" />
                <stop stop-color="#ffffff" stop-opacity="0" offset="1" />
            </linearGradient>
            <linearGradient id="c9bad8ab-de8e-42ff-a621-50c733d6bd38" x1="1429.18" y1="-81.32" x2="1826.6" y2="-81.32" xmlns:xlink="http://www.w3.org/1999/xlink" xlink:href="#c7125316-a15f-449d-9c7e-0ebc1a536b58" />
            <linearGradient id="21617c17-582c-44fb-a337-f51b52bc8e57" gradientTransform="rotate(180 1082.64 423.015)" x1="1440.17" y1="328.43" x2="1586.07" y2="328.43" xmlns:xlink="http://www.w3.org/1999/xlink" xlink:href="#c7125316-a15f-449d-9c7e-0ebc1a536b58" />
            <linearGradient id="4012706c-4926-49e3-8c3a-96a2e46df119" gradientUnits="userSpaceOnUse" gradientTransform="matrix(1 0 0 -1 -450 871.12)" x1="770.59" y1="460.1" x2="1148.71" y2="460.1">
                <stop stop-color="#315de8" offset="0" />
                <stop stop-color="#2b63ea" offset="0.03" />
                <stop stop-color="#1379f4" offset="0.19" />
                <stop stop-color="#0587fa" offset="0.33" />
                <stop stop-color="#008cfc" offset="0.46" />
            </linearGradient>
            <linearGradient id="dafee83c-7985-492b-994c-8a8e8fbaadaf" gradientUnits="userSpaceOnUse" gradientTransform="matrix(1 0 0 -1 -450 871.12)" x1="831" y1="401.87" x2="1143.83" y2="401.87">
                <stop stop-color="#3e8cfc" offset="0" />
                <stop stop-color="#2970f7" offset="0.14" />
                <stop stop-color="#0b47f1" offset="0.37" />
                <stop stop-color="#0038ee" offset="0.49" />
                <stop stop-color="#033cef" offset="0.6" />
                <stop stop-color="#0c49f1" offset="0.71" />
                <stop stop-color="#1b5df4" offset="0.83" />
                <stop stop-color="#317af9" offset="0.94" />
                <stop stop-color="#3e8cfc" offset="1" />
            </linearGradient>
            <linearGradient id="0d1a7beb-2c31-4205-9b9b-ca05f1ce4f36" gradientUnits="userSpaceOnUse" gradientTransform="rotate(180 -2721.53 435.56)" x1="-6078.71" y1="513.48" x2="-6025.64" y2="513.48">
                <stop stop-color="#082ac1" offset="0" />
                <stop stop-color="#083fc2" offset="0.34" />
                <stop stop-color="#084dc3" offset="0.7" />
                <stop stop-color="#0852c3" offset="1" />
            </linearGradient>
            <linearGradient id="37a4a897-25b8-4f7e-805d-52e1668e066d" gradientTransform="rotate(-148.54 -2598.41 1299.06)" x1="-4942.93" y1="3746.41" x2="-4714.69" y2="3746.41" xmlns:xlink="http://www.w3.org/1999/xlink" xlink:href="#dafee83c-7985-492b-994c-8a8e8fbaadaf" />
            <linearGradient id="6836b0dc-b6c1-4a12-92f8-a6dd58cf6b3a" gradientUnits="userSpaceOnUse" gradientTransform="matrix(1 0 0 -1 -450 871.12)" x1="738" y1="400.38" x2="992.75" y2="400.38">
                <stop stop-color="#1946af" offset="0" />
                <stop stop-color="#1934af" offset="1" />
            </linearGradient>
            <linearGradient id="6988136b-9b93-4778-858d-746793b13eff" gradientTransform="matrix(-0.44 0 0 0.45 1032.59 532.47)" x1="1312.14" y1="75.9" x2="1811.51" y2="75.9" xmlns:xlink="http://www.w3.org/1999/xlink" xlink:href="#c7125316-a15f-449d-9c7e-0ebc1a536b58" />
            <linearGradient id="c45e3eb1-b674-4277-9490-bc30eb4a8b10" gradientUnits="userSpaceOnUse" gradientTransform="rotate(180 -2721.53 435.56)" x1="-6000.66" y1="485.33" x2="-6000.66" y2="485.33">
                <stop stop-color="#ffffff" offset="0" />
                <stop stop-color="#fafafa" offset="0.29" />
                <stop stop-color="#ececec" offset="0.63" />
                <stop stop-color="#d4d4d4" offset="0.99" />
                <stop stop-color="#d4d4d4" offset="1" />
            </linearGradient>
            <linearGradient id="0254c2f8-434f-4df1-b6de-4ff2127716cf" gradientUnits="userSpaceOnUse" gradientTransform="matrix(1 0 0 -1 -450 871.12)" x1="765.85" y1="421.71" x2="882.7" y2="421.71">
                <stop stop-color="#1946af" offset="0" />
                <stop stop-color="#0d2d93" offset="1" />
            </linearGradient>
            <linearGradient id="865c7541-ace1-4c64-87d7-6d560a3ee67e" gradientUnits="userSpaceOnUse" gradientTransform="rotate(180 -2721.53 435.56)" x1="-6022.18" y1="473.67" x2="-5895.66" y2="473.67">
                <stop stop-color="#ebc1a1" offset="0" />
                <stop stop-color="#ffad84" offset="0.9" />
            </linearGradient>
            <linearGradient id="45a49a80-d0d3-4506-aba4-8cac73987b76" gradientTransform="rotate(180 1110.33 435.56)" x1="1625.67" y1="307.93" x2="1740.14" y2="307.93" xmlns:xlink="http://www.w3.org/1999/xlink" xlink:href="#c7125316-a15f-449d-9c7e-0ebc1a536b58" />
            <linearGradient id="3e291efd-7813-4dda-9c95-8ff5a805c6f1" gradientUnits="userSpaceOnUse" gradientTransform="matrix(1 0 0 -1 -450 871.12)" x1="982.66" y1="331.26" x2="1035.02" y2="331.26">
                <stop stop-color="#fe6907" offset="0" />
                <stop stop-color="#f96b14" offset="0.21" />
                <stop stop-color="#f36e23" offset="0.51" />
                <stop stop-color="#f58020" offset="0.75" />
                <stop stop-color="#f8971d" offset="1" />
            </linearGradient>
            <linearGradient id="bca93cca-83df-493d-a27c-b47bd020c3c7" gradientUnits="userSpaceOnUse" gradientTransform="matrix(1 0 0 -1 -450 871.12)" x1="999.69" y1="371.38" x2="1009.13" y2="371.38">
                <stop stop-color="#082ac1" stop-opacity="0.1" offset="0" />
                <stop stop-color="#ffffff" stop-opacity="0.22" offset="0.38" />
                <stop stop-color="#ffffff" stop-opacity="0.3" offset="0.99" />
            </linearGradient>
            <linearGradient id="97d1502b-5f21-4711-9772-824308f41999" x1="1006.08" y1="373.58" x2="1015.52" y2="373.58" xmlns:xlink="http://www.w3.org/1999/xlink" xlink:href="#bca93cca-83df-493d-a27c-b47bd020c3c7" />
            <linearGradient id="b70a7c66-60d6-4651-8508-4bc2eaba32ff" x1="996.25" y1="372.13" x2="1003.12" y2="372.13" xmlns:xlink="http://www.w3.org/1999/xlink" xlink:href="#bca93cca-83df-493d-a27c-b47bd020c3c7" />
            <linearGradient id="02ed994a-9f67-404c-a8ad-b23c5c859545" gradientUnits="userSpaceOnUse" gradientTransform="matrix(1 0 0 -1 -505.4 846.03)" x1="1148.4" y1="343.63" x2="1194.9" y2="343.63">
                <stop stop-color="#082ac1" offset="0" />
                <stop stop-color="#0625ab" offset="0.12" />
                <stop stop-color="#021b82" offset="0.36" />
                <stop stop-color="#001773" offset="0.49" />
                <stop stop-color="#001877" offset="0.5" />
                <stop stop-color="#042298" offset="0.64" />
                <stop stop-color="#0629b0" offset="0.77" />
                <stop stop-color="#082ebe" offset="0.9" />
                <stop stop-color="#082fc3" offset="1" />
            </linearGradient>
            <linearGradient id="43c07f6c-1a54-44a5-971f-6628d777977c" gradientUnits="userSpaceOnUse" gradientTransform="matrix(1 0 0 -1 -41 596.72)" x1="734.85" y1="112.92" x2="790.59" y2="112.92">
                <stop stop-color="#40ed99" offset="0" />
                <stop stop-color="#30b273" offset="0.27" />
                <stop stop-color="#66f1ad" offset="0.52" />
                <stop stop-color="#30b273" offset="0.67" />
                <stop stop-color="#40ed99" offset="1" />
            </linearGradient>
            <linearGradient id="cd811ccd-2d8f-4158-aac8-694fdf403cab" gradientUnits="userSpaceOnUse" gradientTransform="matrix(1 0 0 -1 -505.4 846.03)" x1="1143.6" y1="363.18" x2="1199.3" y2="363.18">
                <stop stop-color="#082ac1" offset="0" />
                <stop stop-color="#0629a9" offset="0.13" />
                <stop stop-color="#022880" offset="0.37" />
                <stop stop-color="#002871" offset="0.49" />
                <stop stop-color="#012b77" offset="0.51" />
                <stop stop-color="#043c98" offset="0.65" />
                <stop stop-color="#0648b0" offset="0.78" />
                <stop stop-color="#084fbe" offset="0.9" />
                <stop stop-color="#0852c3" offset="1" />
            </linearGradient>
            <linearGradient id="3c868bf6-d290-4044-9550-66cc08b67b29" gradientUnits="userSpaceOnUse" gradientTransform="matrix(0.97 -0.23 -0.23 -0.97 -372.18 1075.29)" x1="1000.11" y1="605.55" x2="1042.44" y2="605.55">
                <stop stop-color="#ebc1a1" offset="0" />
                <stop stop-color="#f1bb98" offset="0.07" />
                <stop stop-color="#f9b38d" offset="0.22" />
                <stop stop-color="#feae86" offset="0.42" />
                <stop stop-color="#ffad84" offset="1" />
            </linearGradient>
            <linearGradient id="37d38a9b-2976-4e77-bd5d-0063d8174de6" gradientTransform="matrix(1 0 0 -1 -450 871.12)" x1="967.59" y1="632.81" x2="1018.81" y2="632.81" xmlns:xlink="http://www.w3.org/1999/xlink" xlink:href="#865c7541-ace1-4c64-87d7-6d560a3ee67e" />
            <linearGradient id="d7ea4c01-5dd6-41fd-b8d4-42332effe186" gradientUnits="userSpaceOnUse" gradientTransform="matrix(0.99 0.11 0.11 -0.99 -519.89 1026.82)" x1="959.67" y1="898.56" x2="964.61" y2="898.56">
                <stop stop-color="#ebc1a1" stop-opacity="0.2" offset="0" />
                <stop stop-color="#f0bc9a" stop-opacity="0.24" offset="0.05" />
                <stop stop-color="#f9b48f" stop-opacity="0.36" offset="0.2" />
                <stop stop-color="#feaf88" stop-opacity="0.53" offset="0.41" />
                <stop stop-color="#ffae86" offset="1" />
            </linearGradient>
            <linearGradient id="710bd230-6128-497a-9a9f-f3aaea04bd4f" gradientTransform="matrix(1 0 0 -1 -450 871.12)" x1="973.85" y1="586.97" x2="1008.45" y2="586.97" xmlns:xlink="http://www.w3.org/1999/xlink" xlink:href="#c45e3eb1-b674-4277-9490-bc30eb4a8b10" />
            <linearGradient id="a5803d22-0ec7-4e8f-843b-bed79881236d" gradientTransform="rotate(-136.61 794.345 530.381)" x1="1153.85" y1="517.46" x2="1168.08" y2="517.46" xmlns:xlink="http://www.w3.org/1999/xlink" xlink:href="#c45e3eb1-b674-4277-9490-bc30eb4a8b10" />
            <linearGradient id="fc150d36-4d64-4b5d-b30a-b9bb59af1b15" gradientTransform="rotate(78.47 -2964.29 -3302.26)" x1="1356.15" y1="-5978.59" x2="1373.91" y2="-5978.59" xmlns:xlink="http://www.w3.org/1999/xlink" xlink:href="#c45e3eb1-b674-4277-9490-bc30eb4a8b10" />
            <linearGradient id="f41e829d-f8ab-4d24-a601-0efd35e6d790" gradientTransform="rotate(165 -2770.46 230.93)" x1="-5910.8" y1="-749.16" x2="-5807.25" y2="-749.16" xmlns:xlink="http://www.w3.org/1999/xlink" xlink:href="#865c7541-ace1-4c64-87d7-6d560a3ee67e" />
            <linearGradient id="6bab89eb-b39f-4ae8-9ac5-b5f4495c1fc5" gradientTransform="rotate(40.54 -4720.13 -7133.13)" x1="4070.98" y1="-4797.94" x2="4087.69" y2="-4797.94" xmlns:xlink="http://www.w3.org/1999/xlink" xlink:href="#c45e3eb1-b674-4277-9490-bc30eb4a8b10" />
            <linearGradient id="8fd908ca-90d3-4a3f-b922-0cb87ae4874d" gradientTransform="matrix(1 0 0 -1 -450 871.12)" x1="729.3" y1="346.53" x2="749.3" y2="346.53" xmlns:xlink="http://www.w3.org/1999/xlink" xlink:href="#865c7541-ace1-4c64-87d7-6d560a3ee67e" />
            <linearGradient id="c9b803f9-aada-4c0e-8a67-e0d0a18424bf" gradientTransform="matrix(0.2 -0.98 -0.98 -0.2 442.5 1555.11)" x1="976.97" y1="291.59" x2="993.63" y2="291.59" xmlns:xlink="http://www.w3.org/1999/xlink" xlink:href="#865c7541-ace1-4c64-87d7-6d560a3ee67e" />
        </defs>
        <path fill="#edf1fb" d="M 565.8 289.26 v 6.57 H 172.1 v -6.57 h 393.7 Z" />
        <path fill="#edf1fb" d="M 574.56 297.83 v 6.57 H 183.23 v -6.57 h 391.33 Z" />
        <path fill="#edf1fb" d="M 560.15 301.22 v 108.49 h -377.1 V 301.22 h 377.1 Z" />
        <path fill="#ffffff" d="M 260.69 306.78 v 25.27 h -58.94 v -25.27 h 58.94 Z" />
        <path fill="#edf1fb" d="M 214.53 316.91 v 5.02 h 10.31 l 1.18 -2.56 h 10.41 l 1.18 2.56 h 10.31 v -5.02 h -33.39 Z" />
        <path fill="#ffffff" d="M 260.69 338.81 v 54.93 h -58.94 v -54.93 h 58.94 Z" />
        <path fill="#ffffff" d="M 337.66 306.6 v 25.27 h -58.94 V 306.6 h 58.94 Z" />
        <path fill="#ffffff" d="M 337.66 338.62 v 54.93 h -58.94 v -54.93 h 58.94 Z" />
        <path fill="#edf1fb" d="M 183.23 295.83 V 459.7 h -7.12 V 295.83 h 7.12 Z" />
        <path fill="#edf1fb" d="M 214.53 349.03 v 4.92 h 10.31 l 1.18 -2.46 h 10.41 l 1.18 2.46 h 10.31 v -4.92 h -33.39 Z" />
        <path fill="#edf1fb" d="M 292.19 316.91 v 5.02 h 10.31 l 1.18 -2.56 h 10.4 l 1.19 2.56 h 10.31 v -5.02 h -33.39 Z" />
        <path fill="#edf1fb" d="M 291.49 348.98 V 354 h 10.31 l 1.19 -2.56 h 10.4 l 1.18 2.56 h 10.31 v -5.02 h -33.39 Z" />
        <g>
            <path fill="#edf1fb" d="M 452.5 276.45 H 317.07 a 10.2 10.2 0 0 1 -10.18 -10.18 V 191 a 10.2 10.2 0 0 1 10.18 -10.19 H 452.5 A 10.2 10.2 0 0 1 462.68 191 v 75.27 a 10.14 10.14 0 0 1 -10.08 10.18 h -0.06 Z" />
            <path fill="#ffffff" d="M 454.72 187.95 v 73.3 H 314.44 v -73.3 h 140.28 Z" />
            <path fill="#ffffff" stroke="#fbfcfe" stroke-linecap="round" stroke-linejoin="round" stroke-width="1.59" d="M 387.64 268.73 a 2.86 2.86 0 1 1 -5.72 0 a 2.86 2.86 0 0 1 5.72 0 Z" />
            <path fill="#ffffff" stroke="#edf1fb" stroke-linecap="round" stroke-linejoin="round" stroke-width="1.59" d="M 398.31 276.45 h -27 s -1.67 5.18 -9.23 9 v 3.82 h 45.51 v -3.82 c -7.61 -3.9 -9.28 -9 -9.28 -9 Z" />
        </g>
        <path style="isolation: isolate;" opacity="0.16" fill="url(#c7125316-a15f-449d-9c7e-0ebc1a536b58)" transform="translate(-55.4 -25.09)" d="M 359 513.68 c 0 -19.49 91.93 -37.26 205.36 -39.8 s 205.53 11 205.69 30.48 s -91.92 37.31 -205.36 39.71 S 359 533.16 359 513.68 Z" />
        <path style="isolation: isolate;" opacity="0.16" fill="url(#c9bad8ab-de8e-42ff-a621-50c733d6bd38)" transform="translate(-55.4 -25.09)" d="M 55.4 515 c 0 -7.05 50.66 -13.47 113.18 -14.39 s 113.27 4 113.36 11 s -50.66 13.5 -113.18 14.39 S 55.4 522 55.4 515 Z" />
        <path fill="#edf1fb" d="M 709.8 194.5 c -1.8 -2.5 -3.7 -5.1 -5.5 -7.6 c -8.2 -11.6 -16.3 -23.2 -24.4 -34.8 a 5.84 5.84 0 0 1 -1.1 -3.4 c -0.2 -4.9 -0.2 -9.9 -0.2 -14.9 c -0.1 -6.6 -4.5 -11.8 -11 -12.6 a 4.76 4.76 0 0 1 -0.9 -0.3 h -0.7 a 1.55 1.55 0 0 1 -0.7 -0.1 l -0.2 0.2 c -0.2 0 -0.3 -0.1 -0.5 -0.1 a 12.47 12.47 0 0 1 -1.6 0.4 a 4.76 4.76 0 0 0 -0.7 0.3 c -6 2.3 -8.8 6.4 -8.8 12.8 c 0 4.8 0 9.6 -0.1 14.4 a 6 6 0 0 1 -1 3.2 c -6.5 9.6 -13.2 19.1 -19.8 28.6 c -3 4.3 -6 8.7 -9.1 13 c -1.8 2.4 -1.6 3.6 1.3 4.4 a 33.42 33.42 0 0 0 6.1 1.2 a 278 278 0 0 0 36.6 1.7 c 12.1 -0.1 24.2 -0.3 36.2 -2.1 a 35 35 0 0 0 5.5 -1.5 c 1.2 -0.5 1.4 -1.6 0.6 -2.8 Z m -1.6 2.5 a 58.18 58.18 0 0 1 -6.1 1.6 c -16.3 2 -32.7 2.1 -49.1 1.7 c -8.4 -0.2 -16.8 -1.4 -25.2 -2.2 a 15.57 15.57 0 0 1 -3.5 -1.2 a 1.38 1.38 0 0 1 0.1 -0.6 a 6 6 0 0 1 2.1 -0.7 c 5 -0.7 10 -1.5 15.1 -1.9 a 339.9 339.9 0 0 1 42.7 -0.4 c 7.1 0.4 14.2 1.2 21.3 2 a 11.07 11.07 0 0 1 2.5 1 c 0.1 0.1 0.1 0.4 0.1 0.7 Z" />
        <path fill="#edf1fb" d="M 658.6 8.2 c -0.2 2.2 0.9 3.5 2.9 4.2 c 1.1 0.4 2.3 0.6 3.6 1 v 0.2 c 0.3 -0.1 0.6 -0.1 0.9 -0.2 h 0.1 v -0.2 a 14.69 14.69 0 0 0 2.2 -0.4 c 3.2 -0.8 4.2 -2.1 4.2 -5.3 V 4.6 a 3.76 3.76 0 0 0 -2.1 -3.4 a 9.85 9.85 0 0 0 -7.5 -0.8 c -3.9 1 -4.3 2.6 -4.1 5.3 a 23.39 23.39 0 0 0 -0.2 2.5 Z" />
        <path fill="#edf1fb" d="M 666.7 13.1 v 108.2 h -2.4 V 13.1 h 2.4 Z" />
        <path style="isolation: isolate;" opacity="0.21" fill="url(#21617c17-582c-44fb-a337-f51b52bc8e57)" d="M 725.1 517.6 c 0 2.596 -32.66 4.7 -72.95 4.7 c -40.29 0 -72.95 -2.104 -72.95 -4.7 s 32.66 -4.7 72.95 -4.7 c 40.29 0 72.95 2.104 72.95 4.7 Z" />
        <path fill="#fefefe" d="M 398.9 365.8 l -6.4 0.1 v 1 h 6.4 v -1.1 Z" />
        <path fill="#dadada" d="M 463.3 386.4 l -35 -24.8 l -72.4 1.6 l -2.4 -0.5 l -0.7 -86 l -15 6.1 l -0.2 76.3 l 1.9 8.3 v 1 l -0.3 0.6 l -1 1.5 l 3 4.7 l 4 6.2 l 5.9 5.3 s 6.1 1.3 9 1.1 s 17.4 0.6 17.4 0.6" />
        <path fill="url(#4012706c-4926-49e3-8c3a-96a2e46df119)" transform="translate(-55.4 -25.09)" d="M 663.4 515.19 a 41.91 41.91 0 0 0 7.4 -7.3 c 8.1 -10.3 11.8 -23.3 15.8 -35.6 c 4.6 -13.9 9 -27.9 10.8 -42.4 a 184.22 184.22 0 0 0 -17.4 -102.8 s -21.1 -21.1 -57.6 -31.7 c -40.6 -11.8 -84.6 -21.2 -127 -16.9 A 222.53 222.53 0 0 0 387 320 c -30.1 22 -54.6 50.3 -63.5 87.9 c -12.2 51.3 14.8 106.5 63.7 124.4 c 15.3 5.6 31.7 7.6 48 9.1 c 42.4 3.9 85.3 4.7 127.7 0 c 19.2 -2.1 37.5 -6.2 56.3 -10.4 c 15.2 -3.41 31.8 -6.11 44.2 -15.81 Z" />
        <path fill="url(#dafee83c-7985-492b-994c-8a8e8fbaadaf)" transform="translate(-55.4 -25.09)" d="M 654.4 423.59 c -6.4 4.9 -8.7 13.9 -12.5 20.9 a 206.43 206.43 0 0 1 -15.9 24.7 c -3.6 4.8 -9.6 9.9 -14.8 6.9 c -2.7 -1.6 -3.9 -4.8 -4.4 -7.9 c -1.3 -8 0.8 -16.2 0.7 -24.4 a 4.75 4.75 0 0 0 -0.9 -3.3 c -1.6 -1.7 -4.4 -0.2 -6.2 1.3 c -17.4 14.4 -33.1 28.9 -54.5 37.1 c -20.4 7.8 -42 11.5 -63.1 16.9 c -31.7 8.3 -73.6 14.8 -101.8 31.6 c 73.1 13.3 158.8 20.4 240.9 0.9 c 15.8 -3.8 23.8 -7.7 37.9 -15.9 c 14.5 -8.5 22.2 -23.5 27.1 -39.2 a 143.9 143.9 0 0 0 6.7 -39.1 c 0.2 -8 1.6 -31 -6.2 -35.9 a 1.7 1.7 0 0 0 -1 1" />
        <path fill="#3e8cfc" d="M 538.6 263.91 c 1 -1.5 16.6 2.7 18.1 3 a 157.57 157.57 0 0 1 39.7 14.4 c 12 6.4 32.2 13.8 39.6 25.5 c 7.7 12.2 12.6 26.5 12.7 40.8 c 0.3 31.5 -3.2 66 -16.4 94.8 c -22.1 48.3 -71 64.1 -120.5 68.5 c -3.2 0.3 -6.4 0.5 -9.6 0.7 c -44.9 2.7 -182 -9.7 -182 -9.7 l -8.7 -61.9 l 97.2 -19.5 l 78.9 -79.5 Z" />
        <path fill="url(#0d1a7beb-2c31-4205-9b9b-ca05f1ce4f36)" transform="translate(-55.4 -25.09)" d="M 635.3 323.49 c -7.4 6.6 -48.1 57 -52.5 67.5 s 58 -71.4 52.5 -67.5" />
        <path fill="url(#37a4a897-25b8-4f7e-805d-52e1668e066d)" transform="translate(-55.4 -25.09)" d="M 551.1 396.79 c -33.4 10.7 -52 61.4 -61.2 68 s 100.3 89.6 169.8 3.7 c 26.2 -32.4 52.2 -72.3 41.7 -117.3 c -2.9 -12.3 -8.6 -23.8 -17.4 -32.9 c -22.2 -22.8 -65.5 -33.4 -95.6 -38 c -116.6 -17.6 -64.5 8.3 -64.5 8.3" />
        <path fill="url(#6836b0dc-b6c1-4a12-92f8-a6dd58cf6b3a)" transform="translate(-55.4 -25.09)" d="M 288 503.89 l 32.6 -19.2 l 79.1 -49.5 s 6.6 -14 10.9 -15.4 s 12.1 -10 12.1 -10 l 29.6 -2.9 s 15.7 6.1 23.5 5.5 s 59.2 1.8 59.2 1.8 s 15.7 1.8 2.4 26.2 s -65.2 28.1 -72.5 28.7 s -30.2 0.7 -38.6 9.4 s -84.5 39.8 -84.5 39.8 l -40.6 16.3 Z" />
        <path fill="#dadada" d="M 354.5 378.9 l -17.3 -30.6 l 2.3 17.2 v 4.9 l 8.8 13.8 l 4.3 2.8" />
        <path style="isolation: isolate;" opacity="0.2" fill="url(#6988136b-9b93-4778-858d-746793b13eff)" transform="translate(-55.4 -25.09)" d="M 235.08 567.79 c 0 -6.3 49.15 -11.92 109.81 -12.61 s 109.91 4 109.91 10.28 s -49.15 11.93 -109.8 12.61 s -109.81 -3.97 -109.92 -10.28 Z" />
        <path fill="#d3d3d3" d="M 368.26 373.08 v 5.8 h -13.7 v -5.8 h 13.7 Z" />
        <path fill="#01385b" d="M 502.2 360.7 s 15.1 -18.2 11 -39.4" />
        <path fill="#243a7f" d="M 497.9 244.2 c 12.4 4.8 27.2 6.7 37.5 15.1 c 2.8 2.3 5.5 4.8 6.8 8.1 c 1.4 3.6 0.9 7.6 0.3 11.3 c -2.8 18.9 -21.3 20.5 -25.3 39.2 c -3.1 14.7 -2.8 39.7 -8.4 53.6 c -5.4 13.4 -10.8 30.8 -23.5 30.8 c -9.6 0 -16.9 -12.7 -26.5 -13.5" />
        <path fill="#243a7f" d="M 501.6 263.5 l -27.8 6.41 l -4.4 -2.6 l -6 -3.7 l 5.6 -15.7 s -25.4 -2.3 -31.4 7.4 c -3.8 6.2 -12 31.6 -16.8 64.2 c -2.2 14.9 -15.8 29.7 -15.2 30.6 c 1 1.5 0.4 4.6 0.4 4.6 l 7.4 4.5 l 4 2.3 l 1.6 0.3 l 9.7 3.8 s 8.2 5.2 14.1 3.1 l 13.7 0.9" />
        <path fill="url(#0254c2f8-434f-4df1-b6de-4ff2127716cf)" transform="translate(-55.4 -25.09)" d="M 371 524.59 l 0.6 -29.9 l -7.1 -68.69 l 39.2 4.7 l 29 -20 l -29 -28.8 s -50.7 -7.2 -53.7 -7.2 s -38 -6.6 -33.8 30.2 s 11.7 81.8 11.7 81.8 l 8.2 37.9 Z" />
        <path fill="#dadada" d="M 448.3 371 c 0 0.2 -0.4 0.5 0 0.7 s 0.3 -0.2 0.3 -0.4 c -0.2 -0.1 -0.2 -0.2 -0.3 -0.3 Z" />
        <path fill="#dadada" d="M 458.9 375.7 c 0 0.4 0.2 0.5 0.6 0.5 c -0.1 -0.4 -0.2 -0.6 -0.6 -0.5 Z" />
        <path fill="#d3d3d3" d="M 426.4 383.3 h -60 c -0.5 0 -0.9 0.1 -1 0.7 s 0.4 0.6 0.8 0.8 a 4.13 4.13 0 0 0 1.6 0.1 h 28.6 a 45.64 45.64 0 0 1 6.3 0.2 h 0.7 c 2.4 -0.5 4.8 -0.1 7.1 -0.2 h 1.7 a 4.63 4.63 0 0 0 1.1 0.2 h 2.9 a 6.71 6.71 0 0 1 2.4 -0.2 a 37.51 37.51 0 0 1 6.7 0.3 c 1.6 -0.1 1.8 -0.5 1.1 -1.9 Z" />
        <path fill="#fefefe" d="M 341.7 321.6 a 46.12 46.12 0 0 0 0 9.1 c 0.1 0.9 0.1 2.4 0.6 2.4 c 1 0 0.5 -1.3 0.6 -2 c 0.2 -2.1 0.2 -4.2 0.2 -6.3 v -4.2 c 0 -0.5 -0.1 -1.1 -0.7 -1.1 c -0.8 0 -0.6 0.7 -0.6 1.1 c -0.2 0.31 -0.1 0.6 -0.1 1 Z" />
        <path fill="#fefefe" d="M 458.1 385.5 h 7.1 c -0.1 -0.7 -0.6 -0.5 -1.1 -0.5 h -9.4 c -0.3 0 -0.9 -0.2 -0.9 0.3 s 0.5 0.4 1 0.3 a 12.58 12.58 0 0 1 3.3 -0.1 Z" />
        <path fill="#fefefe" d="M 412.2 374 c -2.2 0 -4.3 -0.6 -6.5 0 a 5 5 0 0 0 -1.2 0.3 v 0.5 a 5 5 0 0 0 2.4 -0.2 a 17.58 17.58 0 0 1 2.5 -0.3 a 8.51 8.51 0 0 1 2.2 0.1 c 0.4 0.1 0.5 -0.1 0.6 -0.4 Z" />
        <path fill="#fefefe" d="M 390.3 377.4 h -0.2 a 0.9 0.9 0 0 1 -1 0.81 h -3.9 c -0.4 0 -0.9 -0.1 -1.2 0.4 c 2.3 0 4.6 0.5 6.8 -0.1 v -0.7 c -0.2 -0.31 -0.3 -0.41 -0.5 -0.41 Z" />
        <path fill="#fefefe" d="M 381.8 378.4 a 0.47 0.47 0 0 0 -0.43 -0.5 h -0.07 c -2.1 0.6 -4.3 0 -6.4 0.6 c 2.3 0 4.6 0.5 6.9 -0.1 Z" />
        <path fill="#fefefe" d="M 407.9 377.6 c -0.2 0.7 -0.8 0.5 -1.3 0.5 H 402 c 0 0.7 0.5 0.5 0.7 0.5 h 4.6 c 0.8 0 1.1 -0.2 1 -1 Z" />
        <path fill="#d3d3d3" d="M 409.4 374.3 c -0.8 -0.2 -1.6 0.3 -2.5 0.3 a 4.79 4.79 0 0 0 3.5 0.8 c -0.2 -0.4 -1 -0.4 -1 -1.1 Z" />
        <path fill="#d3d3d3" d="M 439.4 382.7 a 0.63 0.63 0 0 0 0.6 -0.67 c 0 -0.8 -0.8 -0.6 -1.2 -0.7 s -0.7 0.3 -0.7 0.8 c 0.2 0.78 1.2 -0.33 1.3 0.57 Z" />
        <path fill="#d3d3d3" d="M 411.1 377.3 c 0.5 1 1.7 0.5 2.4 1 c 0.2 0.1 0.3 -0.3 0.3 -0.5 s -0.2 -0.8 -0.7 -0.6 a 5.19 5.19 0 0 1 -1.8 0.1 a 0.13 0.13 0 0 0 -0.18 0 Z" />
        <path fill="#fefefe" d="M 372.5 378.3 c -1.3 -0.4 -2.4 -0.1 -3.7 -0.3 a 3.9 3.9 0 0 0 3.7 0.3 Z" />
        <path fill="#fefefe" d="M 418.5 378.1 h -3.3 a 2.7 2.7 0 0 0 3.3 0 Z" />
        <path fill="#d3d3d3" d="M 462.5 381.8 c 0.1 0.7 0.9 0.3 1.3 0.6 s 0.3 -0.3 0.4 -0.5 c 0.1 -0.8 -0.5 -0.5 -0.9 -0.5 s -0.8 -0.3 -0.8 0.4 Z" />
        <path fill="#d3d3d3" d="M 407.9 377.6 h 0.5 v -0.1 c -0.1 -0.7 -0.7 -1.1 -1.3 -1.5 c 0 0 -0.3 0.1 -0.3 0.2 c -0.2 0.9 0.7 1 1.1 1.4 Z" />
        <path fill="#fefefe" d="M 413.3 385.2 a 4.45 4.45 0 0 0 -1.1 -0.2 c 0 0.3 -0.1 0.7 0.3 0.8 a 0.69 0.69 0 0 0 0.8 -0.58 Z" />
        <path fill="#d3d3d3" d="M 390.8 377.6 v 0.7 c 0.4 -0.2 0.7 -0.5 0.4 -0.9 c -0.1 -0.1 -0.3 0.1 -0.4 0.2 Z" />
        <path fill="#d3d3d3" d="M 444.7 371.3 c -0.1 0.1 -0.3 0.1 -0.3 0.2 a 0.32 0.32 0 0 0 0.3 0.3 c 0.2 0 0.2 -0.1 0.3 -0.2 c -0.1 -0.1 -0.3 -0.2 -0.3 -0.3 Z" />
        <path fill="#d3d3d3" d="M 431.9 368.8 c 0.2 0 0.5 0.1 0.7 -0.2 a 0.22 0.22 0 0 0 -0.2 -0.2 c -0.4 -0.1 -0.5 0.1 -0.5 0.4 Z" />
        <path fill="#d3d3d3" d="M 409.5 376.5 h 0.5 c -0.1 -0.2 -0.1 -0.4 -0.2 -0.4 c -0.3 -0.1 -0.3 0.2 -0.3 0.4 Z" />
        <path fill="#fefefe" d="M 437.7 380.3 c 0.1 0.1 0.1 0 0.1 0 s 0 -0.1 -0.1 0 Z" />
        <path fill="#d3d3d3" d="M 374.2 378.4 c 0 0.1 0.1 0.2 0.1 0.3 l 0.1 -0.1 c -0.1 0 -0.1 -0.1 -0.2 -0.2 Z" />
        <path fill="#fefefe" d="M 339.7 368.5 c 0.1 0.1 -0.1 0.5 0.3 0.3 Z" />
        <path fill="#fefefe" d="M 339.5 368.3 l 0.3 0.3 c -0.1 -0.2 -0.2 -0.2 -0.3 -0.3 Z" />
        <path fill="#dadada" d="M 410.7 370.4 a 0.35 0.35 0 0 0 0.1 0.2 c 0.1 0 0.2 0 0.2 -0.1 s -0.1 -0.1 -0.1 -0.2 s -0.2 0 -0.2 0.1 Z" />
        <path fill="#dadada" d="M 382.5 374.6 h 2.5 c 0.3 0 0.6 0 0.7 -0.3 s -0.1 -0.4 -0.3 -0.5 c -1.3 -1 -2.6 -2 -3.8 -3 c -2 -1.6 -3.9 -3.2 -5.9 -4.8 c -0.7 -0.6 -1.5 -1.1 -2.2 -1.7 c -0.4 -0.3 -0.9 -0.6 -1 -1.1 c -0.2 -1.1 -1.1 -0.9 -1.7 -0.8 a 2 2 0 0 1 -1.8 -0.2 a 3.37 3.37 0 0 0 -2.4 -0.1 c -0.7 0.1 -0.6 0.8 -0.1 1.1 c 3.4 2.6 6.3 5.9 9.8 8.4 a 6.27 6.27 0 0 1 0.9 0.8 c 2.5 2.6 1.6 2.1 5.3 2.2 Z" />
        <path fill="#dadada" d="M 382.7 377.6 c 0.1 -0.7 0.8 -0.2 1.2 -0.3 c 1.7 0 3.5 -0.2 5.2 -0.2 c -0.7 -1 -4.5 -4.2 -5.9 -3.9 a 36.63 36.63 0 0 1 -4.8 -0.1 c -0.4 0 1.6 2.2 2.1 2.6 l 0.7 0.7 c 0.3 0.2 1.1 1 1.5 1.2 Z" />
        <path fill="#dadada" d="M 365.1 374.2 h 3.2 a 11.43 11.43 0 0 0 -3.2 0 Z" />
        <path fill="#d3d3d3" d="M 397.2 366.1 c 0.1 -0.1 0.3 -0.1 0.3 -0.2 a 0.32 0.32 0 0 0 -0.3 -0.3 a 0.23 0.23 0 0 0 -0.2 0.2 c 0 0.11 0.1 0.2 0.2 0.3 Z" />
        <path fill="#dadada" d="M 461.4 378.5 l -27.7 -12.3 l -8 1 l -19.2 2 l 12.5 8.3 l 5 2.2 l 1.7 4.9 l 27.2 2.9 l 12.3 -0.7 l -0.3 -7.1 l -3.5 -1.2 Z" />
        <path fill="#fefefe" d="M 412.2 373.8 l -8 0.1 v 0.9 h 8 v -1 Z" />
        <path fill="#fefefe" d="M 408.4 377.6 l -8.1 0.1 v 1 h 8.1 v -1.1 Z" />
        <path fill="#fefefe" d="M 396.5 377.6 l -8 0.1 v 1 h 8 v -1.1 Z" />
        <path fill="#fefefe" d="M 390.2 377.6 l -8.1 0.1 v 1 h 8.1 v -1.1 Z" />
        <path fill="#fefefe" d="M 397.6 364.5 l -6.4 0.1 v 0.9 h 6.4 v -1 Z" />
        <path fill="#fefefe" d="M 394.5 367.9 l -6.4 0.1 v 0.9 h 6.4 v -1 Z" />
        <path fill="#fefefe" d="M 401.4 372.6 l -6.3 0.1 v 1 h 6.3 v -1.1 Z" />
        <path fill="#dadada" d="M 396.13 361.38 v 1.8 h -40.2 v -1.8 h 40.2 Z" />
        <path fill="#dadada" d="M 368.22 372.63 v 7.2 h -13.9 v -7.2 h 13.9 Z" />
        <path fill="#dadada" d="M 354.54 348.05 v 12.7 h -1.9 v -12.7 h 1.9 Z" />
        <path fill="#d3d3d3" d="M 468.1 380 l -40.4 -18.9 l -0.3 1 l 22 10.4 l 15.5 7.2 l 3.2 0.3 Z" />
        <path fill="#d3d3d3" d="M 427.7 361.1 l -29.6 0.2 l -2.8 0.1 l 0.8 0.1 l 31.8 0.8 l -0.2 -1.2" />
        <path fill="#172a72" d="M 444 292.1 l -8.4 29.3 l -1.4 0.5 l 9.8 -29.8 Z" />
        <path fill="#dadada" d="M 380.9 374.6 h 3.1 c -1 -0.6 -2.1 -1.4 -2.9 -1.4 c -0.3 0 -0.2 0.71 -0.2 1.4 Z" />
        <path fill="#dadada" d="M 468.1 380 c 0 -0.6 -0.7 -0.5 -1.2 -0.6 c -1 -1.2 -2.7 -1.3 -4 -2.1 a 7.76 7.76 0 0 0 -3.4 -1.2 c -0.4 0 -0.6 -0.1 -0.6 -0.5 c -2.1 -0.9 -4.1 -1.8 -6.2 -2.7 a 21.61 21.61 0 0 0 -4.2 -1.7 c 0 0.2 -0.1 0.6 -0.3 0.4 c -0.4 -0.2 0 -0.4 0 -0.7 a 12.5 12.5 0 0 1 -4.8 -1.9 c -4.8 -3.1 -10.1 -5 -15.2 -7.5 a 2.18 2.18 0 0 0 -0.7 -0.3 c -3.4 0.1 -6.8 -0.3 -10.2 0 a 17 17 0 0 1 -3.9 0 a 34.37 34.37 0 0 0 -7.1 -0.1 c -3.5 0.3 -6.9 0.1 -10.4 0.2 h -41.4 c 0.2 -2.8 -0.6 -2.8 -0.2 -5.6 c 0.1 -7.6 0.2 -5 0.2 -6 V 278 c 0 -1 0.3 -2.4 -0.7 -2.8 c -1.2 -0.6 -2.7 0 -3.7 0.8 a 10.41 10.41 0 0 1 -4 1.9 c -2.5 0.8 -4.9 2 -7.3 3 c -1.4 0.6 -1.8 2.1 -1.8 3.6 V 344 c 0 2 0.2 3.9 0.3 5.8 a 3 3 0 0 0 -0.2 1.6 c 0 3.2 0.1 6.5 0 9.7 a 7.72 7.72 0 0 0 1.6 5.3 a 3.6 3.6 0 0 1 0.9 1.7 c -1.7 0.5 -2.1 1.8 -1.1 3.4 c 1.6 2.6 3.5 5.1 5 7.8 a 25.7 25.7 0 0 0 5.8 6.5 c 1.5 1.3 3.5 1.5 5.4 2 c 3.4 0.9 6.9 0.5 10.3 0.6 s 6.6 0.2 10 0.2 c 24 0 48.1 0.1 72.1 0 c 6.2 0 12.3 -0.1 18.5 -0.6 c 1.7 -0.1 1.7 -1.1 2.1 -2.1 l -0.2 -0.2 a 0.22 0.22 0 0 1 0.2 0.2 c 1.2 -1.7 0.3 -3.9 0.4 -5.9 Z M 340 368.8 c -0.4 0.3 -0.2 -0.1 -0.3 -0.3 l 0.3 0.3 a 0.54 0.54 0 0 1 0.4 0.2 a 0.54 0.54 0 0 0 -0.4 -0.2 Z m 2.3 -35.8 c -0.5 0 -0.6 -1.5 -0.6 -2.4 c -0.2 -3 0.6 -6 0 -9.1 v -1.1 c 0 -0.4 -0.2 -1.1 0.6 -1.1 s 0.7 0.5 0.7 1.1 v 4.2 c 0 2.1 0 4.2 -0.2 6.3 c 0 0.8 0.4 2.1 -0.5 2.1 Z m 68.6 37.3 a 0.35 0.35 0 0 0 0.1 0.2 c 0 0.1 -0.1 0.1 -0.2 0.1 a 0.35 0.35 0 0 0 -0.1 -0.2 c 0 -0.1 0.1 -0.1 0.2 -0.1 Z m -13.7 -4.7 c 0.2 0 0.4 0.1 0.3 0.3 s -0.2 0.1 -0.3 0.2 c -0.1 -0.1 -0.2 -0.2 -0.2 -0.3 s 0.2 -0.2 0.2 -0.2 Z m 1.2 12.1 c 0.1 0 0.2 -0.1 0.4 -0.1 c -0.1 -0.1 -0.2 -0.3 -0.3 -0.4 c 0.1 0.1 0.2 0.3 0.3 0.4 a 3.56 3.56 0 0 0 0.8 0.5 c -0.1 0.2 -0.9 -0.2 -1.2 -0.4 Z m 8.9 1 h -4.6 c -0.3 0 -0.7 0.2 -0.7 -0.5 h 4.6 c 0.5 0 1 0.2 1.3 -0.5 c -0.4 -0.4 -1.3 -0.5 -1.1 -1.4 c 0 -0.1 0.2 -0.2 0.3 -0.2 a 2 2 0 0 1 1.3 1.5 v 0.1 c 0 0.7 -0.3 1 -1.1 1 Z m 1.4 -1.5 a 0.38 0.38 0 0 1 0.34 -0.4 h 0.06 c 0 0.2 0 0.5 -0.4 0.4 Z m 3 -2.8 a 5.62 5.62 0 0 0 -2.2 -0.1 c -0.1 0.7 0.7 0.7 1 1.1 a 5.39 5.39 0 0 1 -3.5 -0.8 a 5 5 0 0 1 -2.4 0.2 v -0.5 a 2.8 2.8 0 0 1 1.2 -0.3 c 2.2 0.1 4.3 0 6.5 0 c -0.2 0.3 -0.3 0.5 -0.6 0.4 Z m 0.5 -0.4 c -0.3 -0.8 -1.1 -1.1 -1.7 -1.5 c 0.6 0.4 1.4 0.7 1.7 1.5 Z m 1.3 4.3 a 2.51 2.51 0 0 0 -0.3 -1.2 c 0.4 0 0.5 0.4 0.6 0.7 s -0.3 0.7 -0.3 0.5 Z m 5 -0.2 a 2.7 2.7 0 0 1 -3.3 0 h 3.3 a 1.53 1.53 0 0 1 0.7 0.2 a 1.88 1.88 0 0 0 -0.7 -0.2 Z m 12.3 -9.6 a 2 2 0 0 0 1.1 0.3 a 1.73 1.73 0 0 1 -1.1 -0.3 Z m 1.1 0.3 c 0 -0.3 0.1 -0.5 0.5 -0.5 c 0.1 0 0.2 0.2 0.2 0.2 c -0.2 0.4 -0.5 0.3 -0.7 0.3 Z m 5.8 11.6 v -0.2 a 0.09 0.09 0 0 1 0.1 0.08 a 0.1 0.1 0 0 0 -0.1 0.08 Z m 1.7 2.3 c -0.1 -0.8 -1.1 0.2 -1.3 -0.7 a 0.64 0.64 0 0 1 0.43 -0.78 a 0.62 0.62 0 0 1 0.27 0 c 0.4 0.1 1.2 -0.1 1.2 0.7 c 0 0.4 -0.1 0.7 -0.6 0.8 Z m 5.2 -10.9 a 0.28 0.28 0 0 1 -0.3 -0.23 v -0.06 c 0 -0.1 0.2 -0.1 0.3 -0.2 c 0.1 0.1 0.2 0.2 0.2 0.3 a 0.22 0.22 0 0 1 -0.2 0.19 Z m 18.6 9.5 c 0.4 0 1 -0.3 0.9 0.5 c 0 0.3 -0.1 0.7 -0.4 0.5 s -1.2 0.1 -1.3 -0.6 c 0.1 -0.6 0.4 -0.4 0.8 -0.4 Z m 2 4.2 h -7.1 a 11.84 11.84 0 0 0 -3.2 0.1 c -0.4 0.1 -0.9 0.2 -1 -0.3 s 0.6 -0.3 0.9 -0.3 h 9.4 c 0.4 0 0.9 -0.2 1 0.5 a 1.41 1.41 0 0 0 1.1 0.3 a 1.41 1.41 0 0 1 -1.1 -0.3 Z" />
        <path fill="#fefefe" d="M 391.8 372.1 l -6.3 0.1 v 1 h 6.3 v -1.1 Z" />
        <path fill="#fefefe" d="M 387.3 375.2 l -6.4 0.1 v 0.9 h 6.4 v -1 Z" />
        <path fill="#fefefe" d="M 373.6 370.6 l -6.3 0.1 v 0.9" />
        <path fill="#fefefe" d="M 382.7 371.1 l -6.3 0.1 v 0.9 h 6.3 v -1 Z" />
        <path fill="#fefefe" d="M 383.7 366.1 l -5.3 0.1 v 0.9 h 5.3 v -1 Z" />
        <path fill="#fefefe" d="M 377.8 374.3 l -6.4 0.1 v 0.9 h 6.4 v -1 Z" />
        <path fill="#fefefe" d="M 391.8 368.3 l -6.4 0.1 v 0.9 h 6.4 v -1 Z" />
        <path fill="#fefefe" d="M 377.8 368.3 l -6.4 0.1 v 0.9 h 6.4 v -1 Z" />
        <path fill="#fefefe" d="M 372.8 365.3 l -6.4 0.1 v 0.9 h 6.4 v -1 Z" />
        <path fill="url(#865c7541-ace1-4c64-87d7-6d560a3ee67e)" transform="translate(-55.4 -25.09)" d="M 455.8 398.39 c 1.4 -1.1 8.8 -4.5 9.7 -5.2 s 10.8 -3.6 12.7 -3.8 s 11.1 0.7 16.5 1.4 a 19.06 19.06 0 0 0 9.4 -1.1 s 8.6 0.7 14.8 0.7 c 0 0.6 1.7 2.3 1.7 2.9 c 0.1 3.7 -0.2 3.6 0 7.3 C 512.7 400 506 399 506 399 c -3.8 3 -14.4 3 -18.1 2.5 a 74.75 74.75 0 0 0 -9.7 -0.3 a 43.1 43.1 0 0 1 -5.7 3.5 c -3 1.5 -4.9 0.8 -4.4 -0.4 s 5.9 -5.2 6.5 -6 s -4.1 0.8 -4.4 0.9 s -8.9 5.6 -8.9 5.6 c -4.2 -0.1 -4 -1.2 -4 -1.2 c -3.7 0.6 -4.4 -0.8 -4.6 -1.5 s 1.6 -2.61 3.1 -3.71 Z" />
        <path style="isolation: isolate;" opacity="0.15" fill="url(#45a49a80-d0d3-4506-aba4-8cac73987b76)" transform="translate(-55.4 -25.09)" d="M 482.79 563.19 c 0 1.8 25.1 3.3 56.1 3.3 S 595 565 595 563.19 s -25.11 -3.3 -56.11 -3.3 c -75.6 0 -56.1 1.5 -56.1 3.3 Z" />
        <path fill="url(#3e291efd-7813-4dda-9c95-8ff5a805c6f1)" transform="translate(-55.4 -25.09)" d="M 572.4 520.89 c 1.2 -0.3 2.3 -0.6 3.4 -0.8 c 2.6 -0.4 5 0 6.8 2 a 9.43 9.43 0 0 1 2.1 4.8 c 1.1 5.9 -0.7 10.8 -4.8 15.1 a 53.77 53.77 0 0 1 -9.6 7.6 a 4.22 4.22 0 0 0 -1.9 2.6 a 80.23 80.23 0 0 1 -3.9 11.5 a 1.1 1.1 0 0 1 -0.9 0.7 a 41.29 41.29 0 0 1 -21.2 0.2 c -1.7 -0.5 -1.7 -0.5 -2.3 -2.1 a 114.78 114.78 0 0 1 -6 -23.3 a 123.25 123.25 0 0 1 -1.4 -21.8 c 0 -1.4 0.1 -1.4 1.4 -1.9 a 29.62 29.62 0 0 1 6.6 -1.2 a 147.7 147.7 0 0 1 17.6 -0.3 a 54 54 0 0 1 11.2 1.2 a 21.78 21.78 0 0 1 2.4 0.8 c 0.4 0.1 0.5 0.4 0.5 0.8 Z m -2.3 24.7 c 0.2 0 0.2 -0.1 0.3 -0.1 c 6 -3.3 10 -8 10.4 -15.2 a 10.3 10.3 0 0 0 -0.6 -4.6 a 3.61 3.61 0 0 0 -2.8 -2.5 a 4.78 4.78 0 0 0 -4.9 2.7 v 0.4 c 0 0.5 -0.1 1.1 -0.1 1.6 A 112.77 112.77 0 0 1 571 541 c -0.3 1.49 -0.6 3 -0.9 4.59 Z" />
        <path fill="url(#bca93cca-83df-493d-a27c-b47bd020c3c7)" transform="translate(-55.4 -25.09)" d="M 558.9 486.69 a 16.43 16.43 0 0 1 -2.8 12.2 c -1 1.5 -1.9 2.9 -2.9 4.4 a 21.47 21.47 0 0 0 -3 8.1 c -0.1 0.5 -0.2 0.9 -0.3 1.4 h -0.1 c -0.1 -0.7 -0.1 -1.4 -0.2 -2.2 a 16.42 16.42 0 0 1 2.8 -9.7 c 0.8 -1.3 1.6 -2.5 2.5 -3.7 a 23.66 23.66 0 0 0 3.7 -9.5" />
        <path fill="url(#97d1502b-5f21-4711-9772-824308f41999)" transform="translate(-55.4 -25.09)" d="M 565.3 484.49 a 16.43 16.43 0 0 1 -2.8 12.2 c -1 1.5 -1.9 2.9 -2.9 4.4 a 21.47 21.47 0 0 0 -3 8.1 c -0.1 0.5 -0.2 0.9 -0.3 1.4 h -0.1 c -0.1 -0.7 -0.1 -1.4 -0.2 -2.2 a 16.42 16.42 0 0 1 2.8 -9.7 c 0.8 -1.3 1.6 -2.5 2.5 -3.7 a 23.51 23.51 0 0 0 3.7 -9.5" />
        <path fill="url(#b70a7c66-60d6-4651-8508-4bc2eaba32ff)" transform="translate(-55.4 -25.09)" d="M 546.4 508.39 c 0 -0.4 -0.1 -0.8 -0.1 -1.1 a 12.56 12.56 0 0 1 2.3 -8 c 0.8 -1.3 1.7 -2.5 2.4 -3.8 a 16.86 16.86 0 0 0 1.8 -5.4 c 0 -0.2 0.1 -0.3 0.1 -0.5 h 0.1 c 0 0.5 0.1 1 0.1 1.6 a 12.55 12.55 0 0 1 -2.2 7.3 c -0.8 1.2 -1.6 2.4 -2.3 3.6 a 15.54 15.54 0 0 0 -2 5.6 a 3.31 3.31 0 0 1 -0.2 0.7 Z" />
        <path fill="url(#02ed994a-9f67-404c-a8ad-b23c5c859545)" d="M 643 486.1 l 5.9 32.6 h 35.5 l 5.1 -32.6 H 643 Z" />
        <path fill="url(#43c07f6c-1a54-44a5-971f-6628d777977c)" transform="translate(-55.4 -25.09)" d="M 697.5 504.59 s -5.2 -6.3 -3.2 -21.5 a 24.17 24.17 0 0 1 5.6 7.9 s -1.9 -16.6 0.7 -20.2 c 0 0 1.1 4.1 10.4 17.2 c 0 0 2.4 -22.4 5.6 -25.7 s 10.9 24 10.9 24 s 5.9 -17.3 6.6 -20 s 6.9 7.4 5.7 25.2 c 0 0 5.9 -9.1 4.6 -14.9 c 0 0 10.2 9.7 2 28.1 l -0.4 0.9 Z" />
        <path fill="#8cf4c2" d="M 660.1 479.91 s 17.2 -28.4 18.1 -40 c 0 0 9.2 0.3 6.4 40.4 Z" />
        <path fill="#40ed99" d="M 648.7 479.7 s -9.6 -16.7 -4 -34.1 c 0 0 3.4 10.9 10.3 16.5 c 7.1 5.8 9.9 10.4 9.9 10.4 s -0.3 5.1 -4.4 7.4 Z" />
        <path fill="url(#cd811ccd-2d8f-4158-aac8-694fdf403cab)" d="M 693.9 479.3 v 7.1 h -55.7 v -7.1 h 55.7 Z" />
        <path fill="#edf1fb" d="M 26.36 326.76 c 5.45 0 14.35 0.5 14.35 0.5 s 3 11.38 5.45 21.77 s -2 33.73 35.7 37.19 a 15.52 15.52 0 0 1 1.65 2.06 v 3.05 H 79.8 l -45 85.1 v 5.78 h -1.84 v 2.47 h 5.77 v -2.64 h -1.81 l 0.16 -4.95 l 55.34 -55.49 l 7.58 65.39 l 0.17 8.41 h -2.23 v 2.23 h 6.6 v -2.06 h -1.81 v -8.25 l 8.65 -20.41 v 7.42 h -2.22 v 2.06 h 6.6 v -2.06 h -1.82 l -0.58 -9.65 l 11.14 -46.26 l 63.58 61.27 l 1 4.46 h -2.15 v 3 h 5.77 v -3.14 h -2.8 l -0.41 -5.77 l -53.11 -93.68 c 13.94 -0.66 31.34 -2 38.92 -4.37 c 12.37 -4 9.9 -13.86 8.91 -17.32 l -7.92 -30.76 s 2 -11.38 -13.36 -11.38 s -40.16 -1 -40.16 -1 s -12.36 0.5 -28.78 -11.87 s -29.19 -16.83 -42.63 -16.33 s -18.76 14.38 -20.76 21.3 s -3 10.39 -6 10.88 c -3.18 0.58 -3.68 3.05 1.76 3.05 Z m 99.7 91.95 l 15.59 -19.13 l 42.8 74.05 Z m -5.52 -0.82 l -12.12 -22.19 v -5.94 l 1.4 -1.4 v -1.73 a 20.88 20.88 0 0 1 7.17 -1.32 c 2.56 0 8.91 -0.08 16.58 -0.41 l 6.84 13.36 l -16.08 19.71 h -3.79 Z m -6 -0.42 l -5.36 0.42 l -0.58 -12.37 Z m -5.53 -15.17 l 0.25 -3.3 l 9.46 18.91 h -1.81 Z m 1.24 20 h 11.55 c -0.58 0.57 -10.07 38.84 -10.07 38.84 Z m 0 40.49 l -5.94 -19.55 l 0.66 -21.36 l 3.3 0.42 Z m -4.54 -44.62 l 1 -16.9 l 1 16.9 Z m -2.63 63.5 l 1.23 -33.15 l 5.53 16.49 Z m -2.91 -63.76 s 3.71 -12.79 3.71 -13.36 v 13.36 Z m -5.57 4.1 h 7.59 s -1.57 50.63 -1.32 57.72 l 0.08 0.83 c -0.08 0 -0.08 -0.33 -0.08 -0.83 Z m -16.9 -21.2 l 13.36 18.89 l -50.46 51.29 Z m 10.47 -8.24 v -4 a 10.9 10.9 0 0 1 9.49 -3.38 l 5.44 0.49 a 8.16 8.16 0 0 0 1.15 0.66 v 12.95 l -5.93 18.31 h -4.71 l -14.67 -18.64 l 2.06 -6.35 h 7.17 Z m -53.89 -68.78 s 11.38 0.42 25.81 1.49 c 13.11 1 14.85 9.89 14.85 9.89 s 4.94 14.35 12.37 30.27 s 61.43 9.4 61.43 9.4 s -29.77 7 -47.09 3.46 c -18.39 -3.71 -19.79 -14.39 -19.79 -14.39 s -8 -21.93 -9.4 -25.73 s -3.79 -9.4 -8.66 -10.72 c -5.27 -1.36 -29.52 -3.67 -29.52 -3.67 Z" />
        <path fill="url(#3c868bf6-d290-4044-9550-66cc08b67b29)" d="M 469.6 251.3 l 2.9 -15.8 l 26.6 -5.4 l -2 22.9 l -5 6.3 l -19.6 10.5 l -3 -2.6 l -6.7 -6.7 l 6.8 -9.2 Z" />
        <path fill="#243a7f" d="M 531.1 256.1 c 14.5 8.3 12.7 19.5 12 25.3 c -3.2 27.9 -10.6 55.1 -17.1 82.4 c -2.2 9.3 -8 13.7 -17.5 14.5 c -12.8 1.1 -25.5 2.4 -38.4 4 l 1 -15.6 l 21 -12.2 s 5.7 0.1 5.4 -1 s 1.5 -4.2 1.5 -4.2 s 2.3 -3.4 2.3 -4.6 s 0.3 -4.2 1 -5.1 a 22.58 22.58 0 0 0 2 -7.3 c 0 -1.6 1 -4.9 2.2 -6 s 4.6 -14.4 4.6 -14.4 s -2.8 2 -6.8 11.8" />
        <path fill="url(#37d38a9b-2976-4e77-bd5d-0063d8174de6)" transform="translate(-55.4 -25.09)" d="M 566.6 230.19 c 0.8 -2.2 1.2 -3.5 1.2 -3.5 s 1.1 -10.2 1 -16.1 s -24.8 0.6 -28.5 -1.2 s -19.1 5 -19.1 5 c -0.4 0.2 -1 1.6 -1.2 2.1 a 18 18 0 0 0 -1.1 2.3 c -1.4 3.3 -1.4 8.5 -1.2 12.1 c 0.2 2.6 -0.2 3.4 -0.1 6 c 0.1 1.9 0.4 3.9 0.6 5.8 c 0.3 3.1 0.7 8.3 2.1 11.1 s 0.9 3.6 1.7 6.6 c 0.6 2 3.3 9 6.9 7.8 s 12.7 1.4 13.7 -0.1 s 12.2 -8.5 13.5 -11.2 c 1.7 -3.6 3.6 -8 5.3 -12.4 v 0.4 s 1.1 0.4 1.4 0 s 6.4 -8.7 4.8 -13 a 5.73 5.73 0 0 0 -1 -1.7 Z" />
        <path fill="#5c2f00" d="M 499.5 165 c 5.1 1 10.2 3.2 13.3 7.5 c 2.6 3.6 3.3 8.8 0.7 12.4 a 5.17 5.17 0 0 1 2.8 3 a 12 12 0 0 1 0.6 4.2 c -0.1 5.5 -3.1 12.7 -4.5 18 c -0.4 -1.9 -0.4 -5.2 -2.3 -5.6 a 5.3 5.3 0 0 0 -5.2 2 c -0.6 0.8 -1.1 1.9 -2.1 2.2 a 3.8 3.8 0 0 1 -2.1 -0.3 a 13.09 13.09 0 0 0 -6.8 0.4 a 1.9 1.9 0 0 1 0.24 -2.67 a 2.12 2.12 0 0 1 0.56 -0.33 c 1 -0.4 4.8 0.1 5 -1.3 a 1.21 1.21 0 0 0 -0.4 -0.8 a 16.7 16.7 0 0 0 -3.6 -2.3 a 1.93 1.93 0 0 1 -0.8 -0.8 a 1.39 1.39 0 0 1 0 -0.9 c 0.4 -2.7 0.8 -6.3 3.2 -8 c 1.5 -1.1 3.4 -1.4 5 -2.1 a 81.83 81.83 0 0 1 8.5 -3.4 c -4.5 1.4 -8.9 2.7 -13.4 4.1 c -2.2 0.7 -4.5 1.4 -6.7 2.1 a 23.77 23.77 0 0 1 -2.9 0.9 c -1 0.2 -2 -0.3 -3 -0.3 c -2.1 -0.1 -3.8 1 -5.8 1.7 c -0.6 0.2 -2.1 1 -3.4 0.6 c -0.5 -0.1 0.8 -1.3 1 -1.7 a 3.19 3.19 0 0 0 -1.5 -4 a 5.12 5.12 0 0 0 -4.5 0.2 c -0.5 0.2 -0.9 0.6 -1.4 0.5 s -0.9 -0.8 -0.5 -1.1 a 9.21 9.21 0 0 0 -4.2 5.1 a 1.51 1.51 0 0 1 -0.5 0.9 c -1.2 0.9 -2.1 -2.8 -2.2 -3.4 a 13.2 13.2 0 0 1 0.2 -5.2 c 0.7 -3.2 2.3 -6.2 3.4 -9.3 a 3 3 0 0 1 -1.3 0.2 c -0.1 -1.6 2 -4 2.9 -5.3 c 7 -8.7 19.8 -9 30 -7.4 a 10.8 10.8 0 0 1 1.7 0.2 Z" />
        <path fill="#5c2f00" d="M 505.1 222.1 a 11.76 11.76 0 0 0 0.9 -3.6 c 0.2 -2 -0.4 -5 2.4 -15.1 c 0.4 -1.6 -4.7 5.3 -6.4 4.7 c -0.3 -0.1 -0.7 0.3 -1 0.4 c -0.9 0.1 -1.2 1.7 -1.4 2.5 a 88.09 88.09 0 0 1 -3 10.1 a 16.13 16.13 0 0 1 -2.3 4.6 a 14.1 14.1 0 0 1 -2.2 2.1 c -1.1 1 -2.4 2 -3.9 1.6 a 1.86 1.86 0 0 1 -2.26 1.34 h -0.14 a 7.65 7.65 0 0 1 -1.5 -0.9 c -0.2 -0.2 -0.6 -0.4 -0.7 -0.6 s 0.1 -0.5 0.1 -0.8 s -0.5 -0.5 -0.8 -0.8 s -0.1 -0.7 -0.3 -1.1 c -0.4 -1.2 -2.1 -1.4 -3 -1.5 c -1.3 -0.1 -2.3 -0.1 -3.7 -0.1 c -1.2 0 -2.9 -0.2 -4.1 -0.3 c -1 0 -5 0.1 -5.8 0.8 c -0.6 0.5 -1 2.8 -1 3.5 c -0.2 2.1 -0.7 3.6 -0.8 5.9 c 0 1.2 0.4 4.1 0.4 5.3 c 0.1 2.2 2.3 3.3 4.1 4.5 a 17.88 17.88 0 0 0 11.5 2.9 a 29.16 29.16 0 0 0 8.4 -1.3 a 17.16 17.16 0 0 0 6.5 -4.2 c 1.6 -1.7 4.1 -2.9 5.1 -5.1 c 0.2 -0.4 -3.4 1.8 -3.2 1.4 l -2.4 2.1 v -0.9 a 2.13 2.13 0 0 1 0.3 -1.3 a 0.85 0.85 0 0 1 1.15 -0.24 l 1.2 -1.6 c 0.1 0.3 0.2 0.7 0.3 1 c -0.1 -0.3 0.5 -1.3 0.6 -1.6 a 10.51 10.51 0 0 1 1.1 -1.7 c 0.1 -0.1 0.3 -0.3 0.4 -0.2 c 0.3 0.1 0.2 0.5 0.3 0.7 a 0.73 0.73 0 0 0 0.7 0.5 a 1.21 1.21 0 0 0 0.8 -0.4 a 4.91 4.91 0 0 0 1.2 -2.1 a 65.52 65.52 0 0 0 2.4 -8.7 a 4.4 4.4 0 0 0 0.1 -2.8 m -18 24.2 a 6.42 6.42 0 0 1 1.7 -2.2 a 2.55 2.55 0 0 1 1.4 -0.6 a 0.88 0.88 0 0 1 0.7 0.3 Z m 5.2 -3.4 c 0.5 -0.6 1 -1.3 1.5 -1.9 l 0.5 0.5 Z" />
        <path d="M 493.5 205.3 c 0.3 0.1 1.3 0.2 1.3 0.5 a 9.74 9.74 0 0 1 -0.2 2.9 c -0.1 0.7 -0.1 0.8 -0.2 1.4 c -0.3 1.6 -0.2 4 -1 5.5 a 4.39 4.39 0 0 1 -2.5 2.3 a 13.33 13.33 0 0 1 -8.6 0 c -2.3 -0.8 -3.6 -2.7 -4.6 -4.8 a 14.13 14.13 0 0 0 -1.3 -2.5 c -0.8 -1.1 -1.6 -0.9 -2.2 0.3 a 30.82 30.82 0 0 0 -1.2 3.2 a 7.17 7.17 0 0 1 -9.52 3.45 a 7.53 7.53 0 0 1 -1.38 -0.85 a 3.9 3.9 0 0 1 -1.1 -1.5 c -0.9 -2.9 -1.7 -5.8 -2.6 -8.8 a 16.18 16.18 0 0 1 8.1 -0.7 c 2.4 0.4 4.8 1.1 7.2 1.6 a 7.08 7.08 0 0 0 2.9 0 c 2.8 -0.5 5.6 -1.4 8.4 -1.8 c 2.1 -0.5 6.4 -0.2 8.5 -0.2 c 0.3 1.8 -2 2 -3.6 1.5 a 19.22 19.22 0 0 0 -9.2 0.1 c -1.7 0.4 -2.2 1.2 -2.3 3 c -0.1 4.7 3.3 7.8 8.3 7.6 a 15.71 15.71 0 0 0 3.2 -0.6 c 1.8 -0.5 2.4 -1.2 2.5 -3.1 a 6.55 6.55 0 0 0 0 -1.4 a 9.64 9.64 0 0 1 1.1 -7.1 Z M 467 217.2 c 2.4 0 3.6 -0.7 4.5 -2.9 a 22.65 22.65 0 0 0 1.1 -3.8 a 2.14 2.14 0 0 0 -1.43 -2.68 h -0.07 a 16.91 16.91 0 0 0 -8.6 -0.9 a 1.8 1.8 0 0 0 -1.67 1.92 a 1.59 1.59 0 0 0 0.07 0.38 c 0.1 1.1 0.2 2.2 0.4 3.3 c 0.6 3.18 2.4 4.68 5.7 4.68 Z" />
        <path fill="#ffffff" d="M 470.1 229.5 a 0.08 0.08 0 0 0 0.1 -0.08 a 6.7 6.7 0 0 1 2 0 a 23.18 23.18 0 0 1 2.5 0.2 c 1.7 0.2 3.4 0.3 5.1 0.5 a 2.15 2.15 0 0 1 0.8 0.1 a 1.63 1.63 0 0 1 0.7 0.4 a 0.75 0.75 0 0 1 -0.1 0.9 a 5.46 5.46 0 0 1 -1.9 1.8 a 10.71 10.71 0 0 1 -2.7 1.2 a 6.38 6.38 0 0 1 -3.1 -0.1 a 5.9 5.9 0 0 1 -2.9 -2.7 c -0.1 -0.32 -1 -1.81 -0.5 -2.22 Z" />
        <path fill="#5c2f00" d="M 485.2 246.2 l 9.3 -9.5 l 7.9 -7.8 l 0.7 1.5 s 0.9 -0.1 -0.1 2.3 a 21.22 21.22 0 0 1 -5.2 7.1 l -5.6 4.6 l -2.3 1.3 a 3.86 3.86 0 0 1 -2.5 0.6 Z" />
        <path fill="#5c2f00" d="M 469.8 229.4 a 6.2 6.2 0 0 1 3.1 -0.9 c 1.5 0.1 3.1 0.6 4.6 0.6 s 3.5 -0.2 3.2 0.1 l -2.1 -1.9 H 472 l -2.7 0.7 v 2.1 Z" />
        <path fill="#5c2f00" d="M 494.3 225.5 a 12.79 12.79 0 0 0 1.7 -2.6 c 3.2 -6.9 -1.2 7.9 -1.2 7.9 l -5.8 3 l -4.4 -4.2 c -0.1 0.2 6 0.2 9.7 -4.1" />
        <path fill="#5c2f00" d="M 482.1 226.1 s 1.1 -0.5 3.5 4.1 s -1.8 1.3 -1.8 1.3 l -1.8 -2.7 v -2.7 Z" />
        <path d="M 468.1 212.8 c 0 0.884 -0.806 1.6 -1.8 1.6 s -1.8 -0.716 -1.8 -1.6 c 0 -0.884 0.806 -1.6 1.8 -1.6 s 1.8 0.716 1.8 1.6 Z" />
        <path d="M 487.5 212.8 c 0 0.884 -0.806 1.6 -1.8 1.6 s -1.8 -0.716 -1.8 -1.6 c 0 -0.884 0.806 -1.6 1.8 -1.6 s 1.8 0.716 1.8 1.6 Z" />
        <path fill="url(#d7ea4c01-5dd6-41fd-b8d4-42332effe186)" transform="translate(-55.4 -25.09)" d="M 530.5 236.89 s -1.4 10.8 -1.2 11.5 s 3.1 1.4 4.9 -0.4" />
        <path fill="#5c2f00" d="M 478.8 192.2 a 38.38 38.38 0 0 1 -7.6 3.1 c -3.8 1 16 -10.8 12.5 -12.4 s -0.1 6 -10.3 9 s -4.6 -1.3 -4.6 -1.3 l -5.6 1.9 l 13.2 -8.6" />
        <path fill="url(#710bd230-6128-497a-9a9f-f3aaea04bd4f)" transform="translate(-55.4 -25.09)" d="M 553.7 264.59 s 0.9 6 -9.2 13.5 c -12.8 9.5 -18.9 13.1 -20.6 14.2 c 0 0 8.9 10.8 9.3 11.4 s 10.4 -7.7 14.4 -11.7 a 126.25 126.25 0 0 0 10.9 -13.2 c -0.1 0 -2.1 -11.1 -4.8 -14.2 Z" />
        <path fill="url(#a5803d22-0ec7-4e8f-843b-bed79881236d)" transform="translate(-55.4 -25.09)" d="M 525.2 272.89 c 0.2 0.2 0.1 0.8 0.1 1 a 6 6 0 0 1 -0.1 1.4 a 16 16 0 0 1 -0.4 2.3 c -0.2 0.7 -0.5 1.4 -0.7 2.1 a 23.38 23.38 0 0 0 -0.6 3.7 v 1.2 c 0 1.7 0.2 5.6 1.3 6.9 c -1.4 1.3 -2.7 2.6 -4.1 3.9 c -1 0.9 -2 1.9 -3 2.8 c -0.5 0.4 -1.1 1.3 -1.8 1.4 a 17.9 17.9 0 0 1 -0.3 -4 c 0.2 -4.4 0.5 -6.2 0.8 -9.6 a 20.19 20.19 0 0 1 3.4 -9.5 a 11.17 11.17 0 0 1 2.3 -2.5 a 6.36 6.36 0 0 1 1.5 -0.9 a 2.54 2.54 0 0 1 0.8 -0.2 c 0.2 0 0.4 -0.1 0.6 -0.1 a 0.28 0.28 0 0 0 0.2 0.1 Z" />
        <path fill="#172a72" d="M 512.6 306.91 s -5.7 39 -8.2 39.8 s -24.9 11.1 -24.9 11.1 v -2.1 l 23.2 -10.6 Z" />
        <path fill="#172a72" d="M 434.5 341.1 l 9.9 -38.2 s -14 36.8 -12.2 38.8" />
        <path fill="url(#fc150d36-4d64-4b5d-b30a-b9bb59af1b15)" transform="translate(-55.4 -25.09)" d="M 529 402.89 c 0.7 -9.8 -0.3 -14.9 -0.3 -14.9 c -2.4 0.2 -4.4 -1.2 -12.2 0.9 c 0 0 -0.7 17.5 2 17.2 s 10.6 -1.4 10.5 -2.2" />
        <path fill="#172a72" d="M 484.3 296.3 l 15.6 3.7 l -0.6 2.4 l -15.7 -3.7 l 0.7 -2.4 Z" />
        <path fill="#243a7f" d="M 481 327.1 l -3.3 -18.1 l -9.6 26 l -12.1 30.1 l 2.9 0.1 l 2.2 0.1 v -1.6 l 0.9 -0.2 a 36.38 36.38 0 0 1 4 -0.7" />
        <path fill="#172a72" d="M 483.6 299.8 l -2.5 10.8 s 6.7 8.1 15.5 3.8 l 2.6 -11 Z" />
        <path fill="url(#f41e829d-f8ab-4d24-a601-0efd35e6d790)" transform="translate(-55.4 -25.09)" d="M 421.5 393.89 c 1 -1.2 6.4 -5.8 7 -6.6 s 8.3 -5.5 9.9 -6.1 s 9.6 -1.9 14.3 -2.5 s 9.9 -3.9 9.9 -3.9 a 60.06 60.06 0 0 0 8.1 -1.7 c 0.2 0.5 0.3 1.1 0.5 1.6 c 0.9 3.1 0.6 5.2 1.6 8.3 a 55.18 55.18 0 0 0 -11.7 3.6 c -4.1 3.8 -11.2 4.9 -14.4 5.3 a 10.48 10.48 0 0 1 -5.4 -0.6 a 33.8 33.8 0 0 1 -4 4.2 c -2.2 1.9 -3.9 1.8 -3.8 0.6 s 3.8 -5.7 4.1 -6.6 s -3.3 1.6 -3.5 1.7 s -6.3 6.8 -6.3 6.8 c -3.5 0.9 -3.7 -0.1 -3.7 -0.1 c -3 1.3 -3.9 0.3 -4.3 -0.2 s 0.8 -2.6 1.7 -3.8 Z" />
        <path fill="url(#6bab89eb-b39f-4ae8-9ac5-b5f4495c1fc5)" transform="translate(-55.4 -25.09)" d="M 474.3 377.19 a 87.76 87.76 0 0 0 -7.6 -10 c -1.3 1.2 -2.5 2.6 -6.2 7.4 c 0 0 8.6 13.3 10.1 11.9 s 6.9 -5.8 6.5 -6.2" />
        <path fill="url(#8fd908ca-90d3-4a3f-b922-0cb87ae4874d)" transform="translate(-55.4 -25.09)" d="M 290.4 509.59 l -11.1 5.8 s 4.3 9.1 7.6 24.2 c 0 0 3.7 -4.2 12.4 -9.8 Z" />
        <path fill="url(#c9b803f9-aada-4c0e-8a67-e0d0a18424bf)" transform="translate(-55.4 -25.09)" d="M 341.9 524.59 l 0.4 12.3 s 8.6 -2 24 -2.2 c 0 0 -0.3 -1.8 -1.1 -10.1 Z" />
        <path fill="#0852c3" d="M 208.6 533 s -16.2 8.4 -26.6 0.3 a 35.06 35.06 0 0 1 -8.1 -8.6 c -3.6 -5.6 -5.7 -12 -0.2 -17.1 a 24.64 24.64 0 0 1 5 -3.4 a 6.13 6.13 0 0 1 2.2 -0.9 c 0.5 -0.1 2.1 0.1 2.2 0.8 c 0.1 0.5 -0.7 0.9 -1 1.2 c -1.3 1 -2.8 1.8 -3.5 3.2 c -1.4 2.6 -6.5 1.2 2.7 15.6 c 0 0 5.9 8.1 9.7 8.3 s 14.6 0.7 17.5 -1 s 0.1 1.6 0.1 1.6 Z" />
        <path fill="#031d28" d="M 173.6 511.2 a 8.59 8.59 0 0 0 -0.9 2.4 c -0.4 2.3 0.6 4.6 1.9 6.5 a 42.63 42.63 0 0 0 8 8.9 c 2.2 1.8 5.1 4.3 8 4.7 c 5.5 0.6 19.6 0.4 29.6 -6.5 s 21.7 -17.1 22.2 -19 s -2.5 -0.7 -4.3 1 s -6 4.4 -6.6 2.4 s 1.5 -16.5 -7.7 -21.1 c 0 0 6.3 -2.6 6.8 -4 s -7.1 0.2 -21.1 5.8 c -2.3 0.9 -4.9 1.4 -7.3 2.2 a 88 88 0 0 0 -13.1 5.2 a 65.86 65.86 0 0 0 -12.9 8.5 a 11 11 0 0 0 -2.6 3 Z" />
        <path fill="none" stroke="#ffffff" stroke-miterlimit="10" stroke-width="2" d="M 201 505.5 c -0.3 -2.5 6.8 11 7.4 11.2" />
        <path fill="none" stroke="#ffffff" stroke-miterlimit="10" stroke-width="2" d="M 203.9 505.1 c -0.4 -2 7.2 9.3 6.1 8.9" />
        <path fill="#031d28" d="M 316.2 512.1 c -5.5 -9.9 -23.1 -12.2 -30.3 -3.2 c -5.3 6.7 -6.2 16.3 -6 24.5 c 0.1 3.7 -0.2 5.3 2.9 6.2 a 32.43 32.43 0 0 0 7.6 0.9 c 2.1 0.1 22.4 2.3 28.5 -0.8 c -0.7 -0.6 -0.1 -6.8 -0.1 -7.8 c -0.1 -5 -0.4 -10 -1 -15 a 12.8 12.8 0 0 0 -1.6 -4.8 Z" />
        <path fill="#0852c3" d="M 318.9 539.8 c -0.8 -1.8 -3.6 -4.8 -5 -6.3 a 39.56 39.56 0 0 0 -5.9 -4.9 c -4.1 -2.9 -9.8 -2.6 -14.4 -0.5 a 38.69 38.69 0 0 0 -9.4 6.7 c -2.3 2.1 -5.1 4.3 -0.6 5.1 a 131.84 131.84 0 0 0 16.6 1.2 c 4.9 0 14.2 1.3 18.7 -1.3 Z" />
        <path fill="none" stroke="#ffffff" stroke-miterlimit="10" stroke-width="2" d="M 293.6 519.6 c -2.2 -1.1 12.9 0.5 13.5 0.1" />
        <path fill="none" stroke="#ffffff" stroke-miterlimit="10" stroke-width="2" d="M 294.9 517 c -1.8 -0.8 11.7 -0.8 10.7 -0.1" />
        <path fill="#dadada" d="M 395.9 367.4 v 1.9 h -2.8 v -1.9 h 2.8 Z" />
        <path fill="#fefefe" d="M 399.8 372.9 l -6.4 0.1 v 0.9 h 6.4 v -1 Z" />
        <path fill="#fefefe" d="M 399.8 369.9 l -6.4 0.1 v 0.9 h 6.4 v -1 Z" />
        <path fill="#fefefe" d="M 377.8 377.9 l -6.4 0.1 v 0.9 h 6.4 v -1 Z" />
        <path fill="#fefefe" d="M 394.8 377.9 l -6.4 0.1 v 0.9 h 6.4 v -1 Z" />
        <path fill="#fefefe" d="M 458.1 383 v 1.9 H 353.8 V 383 h 104.3 Z" />
        <path fill="#fefefe" d="M 354.5 274.9 v 110 h -1.4 v -110 h 1.4 Z" />
        <path fill="#fefefe" d="M 343.8 325.8 c 0 4.253 -0.761 7.7 -1.7 7.7 s -1.7 -3.447 -1.7 -7.7 s 0.761 -7.7 1.7 -7.7 s 1.7 3.447 1.7 7.7 Z" />
        <path fill="#452300" d="M 501.26 167.91 c 4.34 0.85 8.69 2.72 11.33 6.39 c 2.21 3.06 2.81 7.49 0.59 10.56 a 4.4 4.4 0 0 1 2.39 2.56 a 9.85 9.85 0 0 1 0.51 3.57 c -0.08 4.69 -2.64 10.82 -3.83 15.34 c -0.34 -1.62 -0.34 -4.43 -2 -4.77 a 4.51 4.51 0 0 0 -4.43 1.7 c -0.51 0.68 -0.94 1.62 -1.79 1.88 a 3.33 3.33 0 0 1 -1.79 -0.26 a 11.17 11.17 0 0 0 -5.79 0.34 a 1.62 1.62 0 0 1 0.15 -2.31 a 1.92 1.92 0 0 1 0.5 -0.29 c 0.85 -0.34 4.09 0.09 4.26 -1.1 a 1.06 1.06 0 0 0 -0.34 -0.68 a 14.6 14.6 0 0 0 -3.07 -2 a 1.78 1.78 0 0 1 -0.68 -0.68 a 1.13 1.13 0 0 1 0 -0.77 c 0.34 -2.3 0.68 -5.37 2.73 -6.82 c 1.27 -0.93 2.89 -1.19 4.25 -1.79 a 69.7 69.7 0 0 1 7.25 -2.89 c -3.84 1.19 -7.59 2.3 -11.42 3.49 c -1.87 0.6 -3.83 1.19 -5.71 1.79 a 20 20 0 0 1 -2.4 0.84 a 12.9 12.9 0 0 1 -2.55 -0.26 c -1.79 -0.08 -3.24 0.85 -4.94 1.45 a 4.78 4.78 0 0 1 -2.9 0.51 c -0.43 -0.08 0.68 -1.11 0.85 -1.45 a 2.72 2.72 0 0 0 -1.28 -3.41 a 4.34 4.34 0 0 0 -3.83 0.18 c -0.43 0.17 -0.77 0.51 -1.19 0.42 s -0.77 -0.68 -0.43 -0.94 a 7.94 7.94 0 0 0 -3.58 4.35 a 1.34 1.34 0 0 1 -0.42 0.77 c -1 0.76 -1.79 -2.39 -1.88 -2.9 a 11.21 11.21 0 0 1 0.17 -4.43 c 0.6 -2.73 2 -5.28 2.9 -7.92 a 2.78 2.78 0 0 1 -1.11 0.17 c -0.08 -1.37 1.71 -3.41 2.47 -4.52 c 6 -7.41 16.87 -7.66 25.56 -6.3 a 9.62 9.62 0 0 1 1.45 0.18 Z" />
    </g>
</svg>